# File generated by ImageToStl.com - Free Image and 3D model conversion tools

mtllib bush.mtl

o obj1
v -0.12954645 0.07592283 0.23663233
v -0.18661244 0.43796879 0.23100898
v -0.42332989 0.21748325 0.38489392
v -0.45457852 -0.09049141 0.20460328
v -0.71252537 0.16870487 0.17918488
v -0.54691333 0.49531126 0.19550453
v -0.10000563 0.51070249 0.09379867
v -0.02411461 0.02922486 0.10127705
v -0.45636824 -0.19208604 0.05868232
v -0.57916242 0.58696109 0.04658204
v -0.79940665 0.15261388 0.02487892
v 0.47450298 0.16745968 0.21647292
v 0.092417 0.19523974 0.14041987
v 0.16673347 0.16443373 0.26872313
v -0.01097378 -0.18329035 0.27604246
v 0.088989 -0.12020104 0.37070426
v 0.3487097 -0.29308903 0.38148183
v 0.33442351 -0.41321063 0.29037535
v 0.65128171 -0.17677921 0.16361099
v 0.58697045 -0.11530496 0.28616166
v 0.5017134 0.19926384 0.07093336
v 0.35678026 0.00493679 0.44627917
v 0.04274027 0.21232453 0.46864066
v -0.25726902 0.18562642 0.35479578
v -0.20058186 0.13026705 0.45127907
v -0.25146663 -0.15331565 0.30750641
v -0.19621868 -0.12459962 0.41571984
v 0.07570858 -0.2536667 0.30136862
v 0.04979993 -0.20005828 0.41110459
v 0.27211165 0.02325492 0.34486482
v 0.19748475 0.00817226 0.44381139
v 0.06632014 0.29475304 0.3778846
v -0.02431719 -0.01193415 0.56070685
v -0.19194314 -0.31819543 0.31579196
v -0.35198247 -0.02173021 0.21191698
v -0.53091741 -0.27583554 0.36065704
v -0.41545284 -0.58611846 0.26524609
v -0.71362883 -0.45523885 0.13013211
v -0.674402 -0.10642773 0.09717285
v -0.26269519 0.05140233 0.08571409
v -0.04986194 -0.34286085 0.22385541
v -0.74364138 -0.52511203 -0.02304997
v -0.34710309 -0.6991663 0.15663543
v -0.69147444 -0.0612351 -0.06688175
v 0.36806709 -0.305619 0.20543864
v 0.05551174 -0.06512654 0.07798469
v 0.0671927 -0.1670346 0.20168804
v -0.2421626 -0.38710946 0.0354403
v -0.15664275 -0.40914899 0.16969675
v -0.02600861 -0.77040637 0.01413397
v 0.0058938 -0.69736809 0.15367562
v 0.40525621 -0.68531406 0.0435107
v 0.33018234 -0.6333831 0.17576522
v 0.45563859 -0.24942699 0.08297253
v 0.11478187 -0.45592701 0.33986032
v 0.33875668 0.07828581 0.17576522
v 0.37664142 0.40604991 0.20543864
v 0.12335619 0.25574189 0.33986032
v 0.01446812 0.01430082 0.15367562
v -0.14806843 0.30251992 0.16969675
v 0.07576703 0.54463434 0.20168804
v 0.46421292 0.46224192 0.08297253
v 0.41383055 0.02635485 0.0435107
v -0.01743428 -0.05873746 0.01413397
v -0.23358828 0.32455945 0.0354403
v 0.06408606 0.64654237 0.07798469
vn 0.56212 -0.32308 0.76134
vn 0.43189 0.5032 0.74851
vn -0.09807 -0 0.99518
vn -0.17969 -0.70288 0.68824
vn -0.76839 -0.11132 0.63023
vn -0.39042 0.63408 0.66747
vn 0.51728 0.57678 0.63225
vn 0.66656 -0.37033 0.64696
vn -0.18373 -0.80565 0.56317
vn -0.42526 0.72679 0.53937
vn -0.8585 -0.1276 0.49668
vn 0.48909 0.76127 0.42574
vn -0.42036 0.79645 0.43471
vn -0.33565 0.75317 0.56575
vn -0.65917 -0.07784 0.74796
vn -0.54399 -0.00958 0.83904
vn 0.152 -0.47288 0.86792
vn 0.13859 -0.60888 0.78106
vn 0.87043 -0.0628 0.48828
vn 0.79047 0.00354 0.61248
vn 0.52497 0.80573 0.27422
vn 0.15712 0.29479 0.94256
vn 0.19154 0.57585 0.7948
vn -0.68159 0.38576 0.62179
vn -0.59938 0.30913 0.73837
vn -0.66535 -0.56382 0.48931
vn -0.5852 -0.51931 0.62278
vn 0.25126 -0.84497 0.47211
vn 0.21448 -0.76459 0.60778
vn 0.80151 -0.06916 0.59397
vn 0.69453 -0.08775 0.71409
vn 0.22498 0.69147 0.68648
vn -0.02392 -0.13854 0.99007
vn 0.40412 0.04089 0.91379
vn 0.02436 0.74439 0.6673
vn -0.3622 0.12797 0.92327
vn -0.12625 -0.59486 0.79385
vn -0.8338 -0.2843 0.47323
vn -0.74072 0.54341 0.39503
vn 0.11006 0.82421 0.55549
vn 0.54535 0.01784 0.83802
vn -0.87358 -0.35489 0.33304
vn -0.06257 -0.71087 0.70054
vn -0.76688 0.59384 0.24339
vn 0.58308 0.28655 0.7602
vn -0.19095 0.7487 0.63482
vn -0.17673 0.63653 0.75073
vn -0.83887 0.04789 0.54221
vn -0.74199 0.02512 0.66994
vn -0.36841 -0.7864 0.49584
vn -0.33153 -0.70273 0.62949
vn 0.57027 -0.6012 0.55978
vn 0.4874 -0.54116 0.68527
vn 0.67994 0.34754 0.64567
vn -0.05118 -0.08418 0.99514
vn 0.4874 -0.54116 0.68527
vn 0.58308 0.28655 0.7602
vn -0.05118 -0.08418 0.99514
vn -0.33153 -0.70273 0.62949
vn -0.74199 0.02512 0.66994
vn -0.17673 0.63653 0.75073
vn 0.67994 0.34754 0.64567
vn 0.57027 -0.6012 0.55978
vn -0.36841 -0.7864 0.49584
vn -0.83887 0.04789 0.54221
vn -0.19095 0.7487 0.63481
vt 0.30784 0.24142
vt 0.66066 0.21935
vt 0.49965 0.47181
vt 0.22137 0.58284
vt 0.51389 0.7589
vt 0.79737 0.55361
vt 0.79721 0.04142
vt 0.18088 0.0545
vt 0.00348 0.64849
vt 1.00535 0.61328
vt 0.52363 0.99393
usemtl mat0
f 1/1/1 2/2/2 3/3/3
f 4/4/4 1/1/1 3/3/3
f 4/4/4 3/3/3 5/5/5
f 6/6/6 5/5/5 3/3/3
f 3/3/3 2/2/2 6/6/6
f 1/1/1 7/7/7 2/2/2
f 4/4/4 8/8/8 1/1/1
f 5/5/5 9/9/9 4/4/4
f 5/5/5 10/10/10 11/11/11
f 2/2/2 10/10/10 6/6/6
f 12/2/12 13/10/13 14/6/14
f 14/6/14 15/11/15 16/5/16
f 17/4/17 15/11/15 18/9/18
f 17/4/17 19/8/19 20/1/20
f 12/2/12 19/8/19 21/7/21
f 22/3/22 12/2/12 14/6/14
f 14/6/14 16/5/16 22/3/22
f 17/4/17 22/3/22 16/5/16
f 17/4/17 20/1/20 22/3/22
f 20/1/20 12/2/12 22/3/22
f 23/2/23 24/10/24 25/6/25
f 25/6/25 26/11/26 27/5/27
f 27/5/27 28/9/28 29/4/29
f 29/4/29 30/8/30 31/1/31
f 31/1/31 32/7/32 23/2/23
f 33/3/33 23/2/23 25/6/25
f 25/6/25 27/5/27 33/3/33
f 29/4/29 33/3/33 27/5/27
f 29/4/29 31/1/31 33/3/33
f 31/1/31 23/2/23 33/3/33
f 34/1/34 35/2/35 36/3/36
f 37/4/37 34/1/34 36/3/36
f 37/4/37 36/3/36 38/5/38
f 39/6/39 38/5/38 36/3/36
f 36/3/36 35/2/35 39/6/39
f 34/1/34 40/7/40 35/2/35
f 37/4/37 41/8/41 34/1/34
f 37/4/37 42/11/42 43/9/43
f 39/6/39 42/11/42 38/5/38
f 39/6/39 40/7/40 44/10/44
f 45/2/45 46/10/46 47/6/47
f 47/6/47 48/11/48 49/5/49
f 49/5/49 50/9/50 51/4/51
f 51/4/51 52/8/52 53/1/53
f 53/1/53 54/7/54 45/2/45
f 55/3/55 45/2/45 47/6/47
f 47/6/47 49/5/49 55/3/55
f 51/4/51 55/3/55 49/5/49
f 51/4/51 53/1/53 55/3/55
f 53/1/53 45/2/45 55/3/55
f 56/1/56 57/2/57 58/3/58
f 59/4/59 56/1/56 58/3/58
f 59/4/59 58/3/58 60/5/60
f 61/6/61 60/5/60 58/3/58
f 58/3/58 57/2/57 61/6/61
f 56/1/56 62/7/62 57/2/57
f 59/4/59 63/8/63 56/1/56
f 60/5/60 64/9/64 59/4/59
f 61/6/61 65/11/65 60/5/60
f 57/2/57 66/10/66 61/6/61
f 1/1/1 8/8/8 7/7/7
f 4/4/4 9/9/9 8/8/8
f 5/5/5 11/11/11 9/9/9
f 5/5/5 6/6/6 10/10/10
f 2/2/2 7/7/7 10/10/10
f 12/2/12 21/7/21 13/10/13
f 14/6/14 13/10/13 15/11/15
f 17/4/17 16/5/16 15/11/15
f 17/4/17 18/9/18 19/8/19
f 12/2/12 20/1/20 19/8/19
f 23/2/23 32/7/32 24/10/24
f 25/6/25 24/10/24 26/11/26
f 27/5/27 26/11/26 28/9/28
f 29/4/29 28/9/28 30/8/30
f 31/1/31 30/8/30 32/7/32
f 34/1/34 41/8/41 40/7/40
f 37/4/37 43/9/43 41/8/41
f 37/4/37 38/5/38 42/11/42
f 39/6/39 44/10/44 42/11/42
f 39/6/39 35/2/35 40/7/40
f 45/2/45 54/7/54 46/10/46
f 47/6/47 46/10/46 48/11/48
f 49/5/49 48/11/48 50/9/50
f 51/4/51 50/9/50 52/8/52
f 53/1/53 52/8/52 54/7/54
f 56/1/56 63/8/63 62/7/62
f 59/4/59 64/9/64 63/8/63
f 60/5/60 65/11/65 64/9/64
f 61/6/61 66/10/66 65/11/65
f 57/2/57 62/7/62 66/10/66
# Vertices: 66, normals: 66, texture coordinates: 11, faces: 90

